<svg xmlns="http://www.w3.org/2000/svg" width="200" height="100" version="1.1">
 <path d="M0 0v93.5h93.5V0zm32.9 29.8a4.777 4.777 0 0 1 3.8-1.6 5.011 5.011 0 0 1 3.5 1.3c1.1 1.1 1.6 2.7 1.6 5.3v.7h-6.9v.1c0 1.9.9 2.9 2.5 2.9a4.847 4.847 0 0 0 3.1-1.2l1.2 1.9a7.092 7.092 0 0 1-4.5 1.6c-3.5 0-5.7-2.4-5.7-6.2a6.888 6.888 0 0 1 1.4-4.8zM22.3 23a12.326 12.326 0 0 1 .2 2.9v2.4c0 .4-.1.9-.1 1a5.127 5.127 0 0 1 3.4-1.3c1.5 0 2.8.7 3.1 1.7a6.463 6.463 0 0 1 .3 2.2v8.5h-3.1v-8.1c0-1.2-.3-1.6-1.2-1.6a4.322 4.322 0 0 0-2.5 1.1v8.7h-3.2v-14a15.574 15.574 0 0 0-.2-2.7zM6 24.1h11.8l-.5 2.7h-3.9v13.6H10V26.8H6zm3.3 21.6l1.4 6.4c.6 3 .9 5.4.9 5.4.1-.6.4-2.9.8-5.2l1.5-6.6h3.6L19 53c.4 1.5.8 4.3.8 4.3a46.587 46.587 0 0 1 .9-5.5l1.3-6.2h3.5l-3.9 16.5H18l-1.5-6.6c-.5-2.2-.7-4.3-.8-4.7 0 0-.3 2.3-.8 4.7l-1.4 6.7H9.8L5.9 45.7zm4.5 38.6A6.563 6.563 0 0 1 8.5 82a8.774 8.774 0 0 1-2-5.9 10.57 10.57 0 0 1 1.1-5A7.119 7.119 0 0 1 18 68.6l-1.5 2.2a4.109 4.109 0 0 0-2.6-.9 3.653 3.653 0 0 0-2.8 1.4 7.946 7.946 0 0 0-.9 4.2 9.23 9.23 0 0 0 .7 4.4 3.344 3.344 0 0 0 3.1 1.8 4.378 4.378 0 0 0 2.8-1l1.5 2.1a6.98 6.98 0 0 1-4.5 1.5zM30 84h-3v-8.1c0-1.2-.3-1.6-1.2-1.6a4.322 4.322 0 0 0-2.5 1.1V84h-3.2V70.1a16.987 16.987 0 0 0-.2-2.8l3.2-.8a12.798 12.798 0 0 1 .2 3v2.4c0 .4-.1.9-.1 1a5.127 5.127 0 0 1 3.4-1.3 3.025 3.025 0 0 1 3.1 1.8 4.47 4.47 0 0 1 .3 2.2zm-4.8-27.9a6.633 6.633 0 0 1 1.5-4.7 4.777 4.777 0 0 1 3.8-1.6 5.011 5.011 0 0 1 3.5 1.3c1.1 1.1 1.6 2.7 1.6 5.3v.7h-6.9v.1c0 1.9.9 2.9 2.5 2.9a4.847 4.847 0 0 0 3.1-1.2l1.2 1.9a6.9 6.9 0 0 1-4.5 1.6c-3.5-.1-5.8-2.5-5.8-6.3zm16 28.5a3.413 3.413 0 0 1-1.7-1.4 3.736 3.736 0 0 1-.7.6 4.266 4.266 0 0 1-2.4.7c-2.7 0-4.1-1.4-4.1-3.8 0-2.8 1.9-4.1 5.8-4.1h.7v-.5c0-1.3-.3-1.8-1.4-1.8a7.232 7.232 0 0 0-3.5 1.3l-1.4-2.2a8.476 8.476 0 0 1 1.9-1 8.171 8.171 0 0 1 3.3-.7q3.15 0 3.9 2.1a5.629 5.629 0 0 1 .2 2.2l-.1 4v.2a2.424 2.424 0 0 0 1.2 2.5zm2.4-22.8a4.265 4.265 0 0 1-2.4.6c-2.7 0-4.1-1.3-4.1-3.7 0-2.8 1.9-4.2 5.8-4.2a1.952 1.952 0 0 1 .7.1v-.5c0-1.3-.3-1.8-1.4-1.8a7.232 7.232 0 0 0-3.5 1.3l-1.4-2.3a16.451 16.451 0 0 1 1.9-1 8.171 8.171 0 0 1 3.3-.7c2 0 3.4.8 3.9 2.1a5.629 5.629 0 0 1 .2 2.2l-.1 4v.2a2.424 2.424 0 0 0 1.2 2.5l-1.7 2a3.587 3.587 0 0 1-1.7-1.5 4.515 4.515 0 0 1-.7.7zM54.1 84H51v-7.8c0-1.3-.2-1.8-1-1.8a3.529 3.529 0 0 0-2.2 1.1V84h-3.1v-8.7a11.804 11.804 0 0 0-.4-2.8l2.8-.8a2.976 2.976 0 0 1 .5 1.5c.5-.3.9-.6 1.4-.9a4.193 4.193 0 0 1 2.2-.5 2.995 2.995 0 0 1 2.9 1.7 4.697 4.697 0 0 1 .2 1.8V84zm-1.2-21.7a3.17 3.17 0 0 1-3.2-1.8 4.215 4.215 0 0 1-.2-1.9v-6.5h-1.2V50h1.2a25.323 25.323 0 0 1 .1-2.9l3.2-.8c-.1 1.1-.2 2.4-.2 3.7h2.8l-.8 2.1h-2v6c0 1.5.2 2 1.4 2a3.632 3.632 0 0 0 1.1-.3l.4 1.9a6.513 6.513 0 0 1-2.6.6zM66.4 84h-3.1v-7.8c0-1.3-.2-1.8-1.1-1.8a3.529 3.529 0 0 0-2.2 1.1V84h-3.2v-8.7a8.245 8.245 0 0 0-.4-2.8l2.8-.8a4.19 4.19 0 0 1 .4 1.5c.5-.3.9-.6 1.4-.9a3.845 3.845 0 0 1 2.1-.5 2.995 2.995 0 0 1 2.9 1.7 4.496 4.496 0 0 1 .3 1.8zm.6-22h-3.1v-8.1c0-1.2-.4-1.6-1.2-1.6a4.322 4.322 0 0 0-2.5 1.1V62H57V48.1a15.574 15.574 0 0 0-.2-2.7l3.2-.8a12.326 12.326 0 0 1 .2 2.9V50c0 .4-.1.9-.1 1a5.127 5.127 0 0 1 3.4-1.3c1.5 0 2.8.7 3.1 1.7a6.713 6.713 0 0 1 .3 2.3zm11.9 17h-7c0 1.9.9 2.9 2.6 2.9a4.41 4.41 0 0 0 3-1.2l1.2 1.9a7.007 7.007 0 0 1-4.5 1.7c-3.4 0-5.6-2.5-5.6-6.2 0-2.2.4-3.6 1.5-4.8a4.777 4.777 0 0 1 3.8-1.6 5.011 5.011 0 0 1 3.5 1.3c1.1 1.1 1.6 2.7 1.6 5.2a2.485 2.485 0 0 0-.1.8zm.1-22h-7v.1c0 1.9.9 2.9 2.5 2.9a4.847 4.847 0 0 0 3.1-1.2l1.2 1.9a6.9 6.9 0 0 1-4.5 1.6c-3.4 0-5.6-2.4-5.6-6.2 0-2.1.4-3.6 1.5-4.7a4.777 4.777 0 0 1 3.8-1.6 5.011 5.011 0 0 1 3.5 1.3c1.1 1.1 1.6 2.7 1.6 5.3-.1.1-.1.4-.1.6zm5.2 27.3a2.931 2.931 0 0 1-2.8-1.6 7.081 7.081 0 0 1-.3-2.7v-9a35.295 35.295 0 0 0-.2-3.6l3.2-.7a18.505 18.505 0 0 1 .2 3.1v9.3c0 2.1 0 2.4.2 2.7a.822.822 0 0 0 .6.4.756.756 0 0 0 .4-.1L86 84a8.418 8.418 0 0 1-1.8.3zm2.9-31.5a1.613 1.613 0 0 0-.9-.3 2.576 2.576 0 0 0-1.9 1V62h-3.1v-8a9.588 9.588 0 0 0-.5-3.5l2.8-.8a3.099 3.099 0 0 1 .5 1.7 5.171 5.171 0 0 1 1.8-1.5c.2-.2.7-.2 1.1-.2a2.28 2.28 0 0 1 1.1.3z" data-reactid="576"></path>
</svg>
