<?xml version="1.0" encoding="utf-8"?>
<!-- Generator: Adobe Illustrator 21.0.2, SVG Export Plug-In . SVG Version: 6.00 Build 0)  -->
<svg version="1.1" id="extinguisher" xmlns="http://www.w3.org/2000/svg" xmlns:xlink="http://www.w3.org/1999/xlink" x="0px"
	 y="0px" viewBox="0 0 128 128" style="enable-background:new 0 0 128 128;" xml:space="preserve">
<style type="text/css">
	.st0{fill:#fff;}
	.st1{fill:#fff;}
	.st2{fill:#37a0ef;}
	.st3{fill:#37a0ef;}
	.st4{fill:#37a0ef;}
	.st5{fill:#37a0ef;}
	.st6{fill:#37a0ef}
	.st7{opacity:0.5;fill:#37a0ef;}
	.st8{fill:#37a0ef;}
</style>
<g>
	<circle class="st0" cx="64" cy="64" r="64"/>
	<path class="st1" d="M101.1,38.6c-0.9,1.3-3.5,2.4-5.7,2.5l-26.8,1.7c-2.2,0.1-4-1.3-4-3.1c0-1.9,1.8-3.4,4-3.4h30.2
		C100.9,36.3,102,37.3,101.1,38.6z"/>
	<path class="st1" d="M62.8,53c-15.5,0-28.3,13.5-28.3,30v37.7c8.9,4.7,19,7.3,29.7,7.3c9.6,0,18.6-2.1,26.8-5.9V83
		C91,66.5,78.3,53,62.8,53z"/>
	<path class="st2" d="M34.5,107.2v13.5c8.9,4.7,19,7.3,29.7,7.3c9.6,0,18.6-2.1,26.8-5.9v-13.5c-8.2,3.8-17.5,6.4-27,6.4
		C53.3,115,43.4,111.8,34.5,107.2z"/>
	<path class="st1" d="M102.4,17.7c-1.5-1.1-4.4-1.6-6.6-1.1L60.4,25c-2.1,0.5-3.4,2.7-2.7,4.8c0.6,2.1,2.9,3.3,5,2.7l38.5-11.5
		C103.3,20.2,103.8,18.8,102.4,17.7z"/>
	<path class="st3" d="M68.2,44c-2.6,0-4.7-1.9-4.7-4.4c0-2.5,2.2-4.6,4.9-4.6h29.8c1.6,0,2.9,0.6,3.4,1.6c0.4,0.8,0.3,1.7-0.3,2.5
		c-1.1,1.6-3.9,3-6.4,3.2L68.6,44C68.5,44,68.4,44,68.2,44z M68.5,37.1c-1.6,0-3,1.2-3,2.6c0,1.4,1.3,2.4,2.9,2.3L95,40.2
		c2-0.1,4.2-1.3,4.9-2.3c0.1-0.2,0.2-0.4,0.1-0.4c-0.1-0.1-0.5-0.5-1.6-0.5H68.5z"/>
	<path class="st3" d="M61,33.6L61,33.6c-2.2,0-4.2-1.5-4.8-3.6c-0.4-1.3-0.2-2.7,0.4-3.8c0.7-1.2,1.8-2,3.1-2.3l35.6-8.6
		c0.6-0.2,1.3-0.2,2.1-0.2c2.1,0,4.1,0.6,5.4,1.5c1.3,1,1.3,2.1,1.2,2.6c-0.2,1.1-1.2,2-2.7,2.4L62.5,33.4
		C62,33.5,61.5,33.6,61,33.6z M97.4,17c-0.6,0-1.1,0.1-1.6,0.2l-35.6,8.6c-0.8,0.2-1.4,0.7-1.8,1.3c-0.4,0.7-0.5,1.5-0.2,2.2
		c0.4,1.3,1.6,2.2,2.9,2.2l0,0c0.3,0,0.6,0,0.9-0.1l38.8-11.8c0.9-0.3,1.2-0.7,1.3-0.8c0-0.1-0.1-0.4-0.4-0.6
		C100.7,17.5,99,17,97.4,17z"/>
	<circle class="st4" cx="62.8" cy="36.9" r="7.9"/>
	<path class="st3" d="M62.8,52C46.7,52,34,65.9,34,83v37.2c0.7,0.4,1.3,0.7,2,1V83c0-16,11.8-29,26.8-29C77.8,54,90,67,90,83v39.6
		c0.7-0.3,1.3-0.6,2-0.9V83C92,65.9,78.9,52,62.8,52z"/>
	<path class="st3" d="M63,46c-5,0-9-4-9-9c0-5,4-9,9-9c5,0,9,4,9,9C72,42,68,46,63,46z M63,30.1c-3.8,0-7,3.1-7,7c0,3.8,3.1,7,7,7
		c3.8,0,7-3.1,7-7C70,33.2,66.8,30.1,63,30.1z"/>
	<path class="st1" d="M55,38.5c0,1.1-0.9,2-2,2h-1.2c-1.1,0-2-0.9-2-2V35c0-1.1,0.9-2,2-2H53c1.1,0,2,0.9,2,2V38.5z"/>
	<path class="st3" d="M62.1,38c-0.2,0-0.4-0.1-0.6-0.2c-0.5-0.4-0.6-1-0.2-1.5l2.9-3.9c0.4-0.5,1-0.6,1.5-0.2c0.5,0.4,0.6,1,0.2,1.5
		l-2.9,3.9C62.7,37.9,62.4,38,62.1,38z"/>
	<path class="st5" d="M21.5,114.5c-2,0.9-4.1,0-4.7-2.2l-7-25.9c-0.6-2.1,0.7-4,2.9-4.2l56.1-5.1c2.2-0.2,4.5,1.4,5,3.5l1.2,4.5
		c0.6,2.1-0.6,4.6-2.6,5.6L21.5,114.5z"/>
	<path class="st3" d="M74.3,82.5c-0.5,0-0.9-0.3-1-0.8c-0.1-0.5,0.3-1.1,0.8-1.1c0.1,0,10.8-1.8,20.7-4.7c4.6-1.4,7.4-3.8,7.2-5.2
		c-0.1-0.4-1.1-3.6-16-3.7c-2.9,0-6.3,0.2-10.4,0.4c-28.5,1.8-46.9-6.2-52-14.4c-2-3.2-2.1-6.4-0.4-9.4c6.5-11.1,24.8-8.3,25.6-8.2
		c0.5,0.1,0.9,0.6,0.8,1.1c-0.1,0.5-0.6,0.9-1.2,0.8c-0.2,0-17.7-2.7-23.6,7.2c-1.4,2.3-1.3,4.8,0.3,7.3
		c6.6,10.5,30.2,14.7,50.2,13.5C79.4,65.2,82.9,65,86,65c11.3,0.1,17.3,1.9,17.9,5.3c0.6,3.2-4,6.1-8.6,7.5c-10,3-20.8,4.7-21,4.7
		C74.4,82.5,74.3,82.5,74.3,82.5z"/>
	<path class="st6" d="M75.1,85l-1.2-4.5c-0.3-1-1-1.9-1.8-2.6l0.5,3.8c0.3,2.3-1.2,4.7-3.4,5.4l-54.5,17.1l2.2,8
		c0.6,2.1,2.7,3.1,4.7,2.2l51-23.9C74.5,89.6,75.7,87.1,75.1,85z"/>
	<path class="st1" d="M76.8,50.8c0,3.2-2.7,5.8-6,5.8h-16c-3.3,0-6-2.6-6-5.8c0-3.2,2.7-5.8,6-5.8h16C74.1,45,76.8,47.6,76.8,50.8z"
		/>
	<path class="st2" d="M70.8,52h-16c-2.4,0-4.4-1.3-5.4-3.2c-0.4,0.8-0.6,1.6-0.6,2.5c0,3.2,2.7,5.8,6,5.8h16c3.3,0,6-2.6,6-5.8
		c0-0.9-0.2-1.7-0.6-2.5C75.2,50.7,73.2,52,70.8,52z"/>
	<path class="st3" d="M71,57H55c-3.9,0-7-2.9-7-6.5s3.1-6.5,7-6.5h16c3.9,0,7,2.9,7,6.5S74.9,57,71,57z M55,46c-2.8,0-5,2-5,4.5
		s2.2,4.5,5,4.5h16c2.8,0,5-2,5-4.5S73.8,46,71,46H55z"/>
	<path class="st3" d="M53,42h-2c-1.7,0-3-1.3-3-3v-4c0-1.7,1.3-3,3-3h2c1.7,0,3,1.3,3,3v4C56,40.7,54.7,42,53,42z M51,34
		c-0.6,0-1,0.4-1,1v4c0,0.6,0.4,1,1,1h2c0.6,0,1-0.4,1-1v-4c0-0.6-0.4-1-1-1H51z"/>
	<path class="st3" d="M20.2,116c-1.9,0-3.5-1.3-4.1-3.3l-7-26.1C8.8,85.3,9,84,9.7,83c0.7-1.1,1.9-1.7,3.2-1.8l55.6-5.1
		c2.7-0.2,5.3,1.7,6,4.3l1.2,4.5c0.7,2.6-0.7,5.6-3.1,6.8l-50.6,24C21.5,115.8,20.8,116,20.2,116z M69.1,78c-0.1,0-0.2,0-0.3,0
		l-55.6,5.1c-0.8,0.1-1.4,0.4-1.8,1c-0.4,0.6-0.5,1.3-0.3,2l7,26.1c0.3,1.1,1.1,1.8,2.1,1.8c0.4,0,0.7-0.1,1.1-0.3l50.6-24
		c1.5-0.7,2.5-2.8,2-4.4l-1.2-4.5C72.3,79.3,70.7,78,69.1,78z"/>
	<path class="st7" d="M35,85c-0.5,0-0.9-0.4-1-0.8c-0.1-0.5,0.3-1,0.9-1l33-3.1c0.6,0,1,0.3,1.1,0.8c0.1,0.5-0.3,1-0.9,1l-33,3.1
		C35.1,85,35,85,35,85z"/>
	<path class="st7" d="M16,87c-0.5,0-1-0.4-1-0.9c-0.1-0.5,0.4-1,0.9-1.1l11-1.1c0.6,0,1.1,0.3,1.1,0.9c0.1,0.5-0.4,1-0.9,1.1
		l-11,1.1C16.1,87,16.1,87,16,87z"/>
	<path class="st7" d="M87,106c-0.6,0-1-0.4-1-1V84c0-0.6,0.4-1,1-1c0.6,0,1,0.4,1,1v21C88,105.6,87.6,106,87,106z"/>
	<path class="st7" d="M77,63.3c-0.3,0-0.5-0.1-0.7-0.3c-1.1-1.1-2.7-1.8-2.7-1.8c-0.5-0.2-0.7-0.8-0.5-1.3c0.2-0.5,0.8-0.7,1.3-0.5
		c0.1,0,1.9,0.8,3.3,2.2c0.4,0.4,0.4,1,0,1.4C77.5,63.2,77.3,63.3,77,63.3z"/>
	<path class="st7" d="M84.9,76c-0.5,0-1-0.4-1.1-0.9c-0.5-3.1-1.7-5.4-1.7-5.4c-0.3-0.5-0.1-1.2,0.4-1.5c0.5-0.3,1.2-0.1,1.4,0.4
		c0.1,0.1,1.4,2.7,2,6.1c0.1,0.6-0.3,1.2-0.9,1.3C85,76,85,76,84.9,76z"/>
	<path class="st7" d="M40.1,77c-0.1,0-0.2,0-0.3,0c-0.6-0.1-1-0.7-0.8-1.2c1.1-4.5,3.9-8.2,4-8.3c0.4-0.5,1-0.6,1.5-0.2
		c0.5,0.3,0.6,1,0.3,1.4c0,0-2.6,3.5-3.6,7.6C41,76.7,40.6,77,40.1,77z"/>
	<path class="st7" d="M71,49H57c-0.5,0-1-0.4-1-1s0.4-1,1-1h14c0.5,0,1,0.4,1,1S71.6,49,71,49z"/>
	<path class="st7" d="M69.2,27.3c-0.4,0-0.8-0.3-1-0.7c-0.1-0.5,0.2-1.1,0.7-1.2l21.8-5.8c0.5-0.1,1.1,0.2,1.2,0.7
		c0.1,0.5-0.2,1.1-0.7,1.2l-21.7,5.8C69.4,27.3,69.3,27.3,69.2,27.3z"/>
	<path class="st7" d="M83.2,40H75c-0.6,0-1-0.4-1-1s0.4-1,1-1h8.2c0.6,0,1,0.4,1,1S83.8,40,83.2,40z"/>
	<path class="st8" d="M62.8,42.8c-1.1,0-2.2-0.3-3.2-1c-2.7-1.8-3.5-5.4-1.7-8.1c0.3-0.5,0.9-0.6,1.4-0.3c0.5,0.3,0.6,0.9,0.3,1.4
		c-1.2,1.8-0.7,4.2,1.1,5.4c1.8,1.2,4.2,0.7,5.4-1.1c0.3-0.5,0.9-0.6,1.4-0.3c0.5,0.3,0.6,0.9,0.3,1.4
		C66.6,41.8,64.7,42.8,62.8,42.8z"/>
	<path class="st8" d="M111,60c-2.2,0-4-1.8-4-4c0-2.2,1.8-4,4-4c2.2,0,4,1.8,4,4C115,58.2,113.2,60,111,60z M111,53.9
		c-1.2,0-2.1,1-2.1,2.1c0,1.2,1,2.1,2.1,2.1c1.2,0,2.1-1,2.1-2.1C113.1,54.8,112.2,53.9,111,53.9z"/>
	<path class="st8" d="M15,70c-2.2,0-4-1.8-4-4c0-2.2,1.8-4,4-4c2.2,0,4,1.8,4,4C19,68.2,17.2,70,15,70z M15,63.9
		c-1.2,0-2.1,1-2.1,2.1c0,1.2,1,2.1,2.1,2.1c1.2,0,2.1-1,2.1-2.1C17.1,64.8,16.2,63.9,15,63.9z"/>
	<path class="st8" d="M42.4,23.8c0-0.4-0.4-0.8-1-0.9l-1.9-0.3c-0.5-0.1-1.1-0.6-1.1-1.1l-0.3-1.9c-0.1-0.5-0.5-1-0.9-1
		c-0.4,0-0.8,0.4-0.9,1l-0.3,1.9c-0.1,0.5-0.6,1.1-1.1,1.1L33.1,23c-0.5,0.1-1,0.5-1,0.9s0.4,0.8,1,0.9L35,25
		c0.5,0.1,1.1,0.6,1.1,1.1l0.3,1.9c0.1,0.5,0.5,1,0.9,1c0.4,0,0.8-0.4,0.9-1l0.3-2.1c0.1-0.5,0.6-1,1.1-1.1l1.8-0.1
		C42,24.6,42.4,24.2,42.4,23.8z"/>
	<path class="st8" d="M111.4,90.2c0-0.4-0.4-0.8-1-0.9l-1.9-0.3c-0.5-0.1-1.1-0.6-1.1-1.1l-0.3-1.9c-0.1-0.5-0.5-1-0.9-1
		c-0.4,0-0.8,0.4-0.9,1l-0.3,1.9c-0.1,0.5-0.6,1.1-1.1,1.1l-1.9,0.3c-0.5,0.1-1,0.5-1,0.9c0,0.4,0.4,0.8,1,0.9l1.9,0.3
		c0.5,0.1,1.1,0.6,1.1,1.1l0.3,1.9c0.1,0.5,0.5,1,0.9,1c0.4,0,0.8-0.4,0.8-1l0.3-2.1c0.1-0.5,0.6-1,1.1-1.1l1.8-0.1
		C111,91,111.4,90.6,111.4,90.2z"/>
</g>
</svg>
