<?xml version="1.0" encoding="utf-8"?>
<!-- Generator: Adobe Illustrator 21.0.2, SVG Export Plug-In . SVG Version: 6.00 Build 0)  -->
<svg version="1.1" id="laptop" xmlns="http://www.w3.org/2000/svg" xmlns:xlink="http://www.w3.org/1999/xlink" x="0px" y="0px"
	 viewBox="0 0 128 128" style="enable-background:new 0 0 128 128;" xml:space="preserve">
<style type="text/css">
	.st0{fill:#FBD000;}
	.st1{fill:#FFFFFF;}
	.st2{fill:#415E6D;}
	.st3{fill:#233E49;}
	.st4{fill:#3AD0F9;}
	.st5{fill:#EAEAEA;}
	.st6{fill:#D4D6D6;}
	.st7{opacity:0.5;fill:#0C508E;}
</style>
<g>
	<circle class="st0" cx="64" cy="64" r="64"/>
	<path class="st1" d="M78,15c-2.2,0-4-1.8-4-4c0-2.2,1.8-4,4-4c2.2,0,4,1.8,4,4C82,13.2,80.2,15,78,15z M78,8.9
		c-1.2,0-2.1,1-2.1,2.1c0,1.2,1,2.1,2.1,2.1c1.2,0,2.1-1,2.1-2.1C80.1,9.8,79.2,8.9,78,8.9z"/>
	<path class="st1" d="M54,117c-2.2,0-4-1.8-4-4c0-2.2,1.8-4,4-4c2.2,0,4,1.8,4,4C58,115.2,56.2,117,54,117z M54,110.9
		c-1.2,0-2.1,1-2.1,2.1c0,1.2,1,2.1,2.1,2.1c1.2,0,2.1-1,2.1-2.1C56.1,111.8,55.2,110.9,54,110.9z"/>
	<path class="st1" d="M50.1,10.9c0-0.4,0.4-0.8,1-0.9l1.9-0.3c0.5-0.1,1.1-0.6,1.1-1.1l0.3-1.9c0.1-0.5,0.5-1,0.9-1
		c0.4,0,0.8,0.4,0.9,1l0.3,1.9c0.1,0.5,0.6,1.1,1.1,1.1l1.9,0.3c0.5,0.1,1,0.5,1,0.9s-0.4,0.8-1,0.9L57.5,12
		c-0.5,0.1-1.1,0.6-1.1,1.1L56.1,15c-0.1,0.5-0.5,1-0.9,1c-0.4,0-0.8-0.4-0.9-1l-0.3-2.1c-0.1-0.5-0.6-1-1.1-1.1l-1.8-0.1
		C50.5,11.6,50.1,11.3,50.1,10.9z"/>
	<path class="st2" d="M119,90c0,4.4-3.6,8-8,8H15c-4.4,0-8-3.6-8-8V28c0-4.4,3.6-8,8-8h96c4.4,0,8,3.6,8,8V90z"/>
	<path class="st3" d="M111,100H15c-5,0-9-4-9-9V29c0-5,4-9,9-9h96c5,0,9,4,9,9v62C120,96,116,100,111,100z M15,22c-3.9,0-7,3.1-7,7
		v62c0,3.9,3.1,7,7,7h96c3.9,0,7-3.1,7-7V29c0-3.9-3.1-7-7-7H15z"/>
	<path class="st4" d="M113,91c0,2.2-1.8,4-4,4H17c-2.2,0-4-1.8-4-4V32c0-2.2,1.8-4,4-4h92c2.2,0,4,1.8,4,4V91z"/>
	<path class="st3" d="M109,96H17c-2.8,0-5-2.2-5-5V32c0-2.8,2.2-5,5-5h92c2.8,0,5,2.2,5,5v59C114,93.8,111.8,96,109,96z M17,29
		c-1.7,0-3,1.3-3,3v59c0,1.7,1.3,3,3,3h92c1.7,0,3-1.3,3-3V32c0-1.7-1.3-3-3-3H17z"/>
	<path class="st5" d="M1,91v7.1c0,3.5,2.7,4.9,6.2,4.9h113.4c3.5,0,5.4-1.4,5.4-4.9V91H1z"/>
	<path class="st1" d="M1,91v6.6c0,3.5,3.4,5.4,6.9,5.4h113.4c3.5,0,5.8-1.9,5.8-5.4V91H1z"/>
	<path class="st6" d="M51,91v3.2c0,1,2,1.8,3,1.8h19.4c1,0,2.7-0.8,2.7-1.8V91H51z"/>
	<path class="st6" d="M126,101c0-2,0.9-3-0.5-3H3.5C2.1,98,1,99.1,1,100.5l0,0c0,1.4,1.1,2.5,2.5,2.5h120C124.9,103,126,101,126,101
		z"/>
	<path class="st3" d="M121.2,104H7.9C4,104,0,101.8,0,97.6V91c0-0.6,0.4-1,1-1h126c0.6,0,1,0.4,1,1v6.6
		C128,101.5,125.4,104,121.2,104z M2,92v5.6c0,2.9,2.9,4.4,5.9,4.4h113.4c1.8,0,4.8-0.6,4.8-4.4V92H2z"/>
	<path class="st1" d="M31.7,67.6c-0.3,0-0.5-0.1-0.7-0.3c-0.4-0.4-0.4-1,0-1.4l27.7-27.7c0.4-0.4,1-0.4,1.4,0c0.4,0.4,0.4,1,0,1.4
		L32.4,67.3C32.2,67.5,32,67.6,31.7,67.6z"/>
	<path class="st1" d="M57,74.6c-0.3,0-0.5-0.1-0.7-0.3c-0.4-0.4-0.4-1,0-1.4L84,45.3c0.4-0.4,1-0.4,1.4,0c0.4,0.4,0.4,1,0,1.4
		L57.7,74.3C57.5,74.5,57.3,74.6,57,74.6z"/>
	<path class="st1" d="M75.6,70.3c-0.3,0-0.5-0.1-0.7-0.3c-0.4-0.4-0.4-1,0-1.4l14.8-14.8c0.4-0.4,1-0.4,1.4,0c0.4,0.4,0.4,1,0,1.4
		L76.3,70C76.1,70.2,75.8,70.3,75.6,70.3z"/>
	<path class="st1" d="M32.4,84.1c-0.3,0-0.5-0.1-0.7-0.3c-0.4-0.4-0.4-1,0-1.4L63,51c0.4-0.4,1-0.4,1.4,0c0.4,0.4,0.4,1,0,1.4
		L33.1,83.8C32.9,84,32.6,84.1,32.4,84.1z"/>
	<path class="st1" d="M70.7,45.8c-0.3,0-0.5-0.1-0.7-0.3c-0.4-0.4-0.4-1,0-1.4L80.1,34c0.4-0.4,1-0.4,1.4,0c0.4,0.4,0.4,1,0,1.4
		L71.4,45.5C71.2,45.7,70.9,45.8,70.7,45.8z"/>
	<path class="st7" d="M121,95h-9c-0.6,0-1-0.4-1-1s0.4-1,1-1h9c0.6,0,1,0.4,1,1S121.6,95,121,95z"/>
	<path class="st7" d="M104,95H82c-0.6,0-1-0.4-1-1s0.4-1,1-1h22c0.6,0,1,0.4,1,1S104.6,95,104,95z"/>
	<path class="st7" d="M45,95H8c-0.6,0-1-0.4-1-1s0.4-1,1-1h37c0.6,0,1,0.4,1,1S45.6,95,45,95z"/>
	<path class="st3" d="M65.9,26h-3.7c-0.6,0-1.1-0.4-1.1-1c0-0.6,0.5-1,1.1-1h3.7c0.6,0,1.1,0.4,1.1,1C67,25.6,66.5,26,65.9,26z"/>
</g>
</svg>
