<?xml version="1.0" encoding="utf-8"?>
<!-- Generator: Adobe Illustrator 21.0.2, SVG Export Plug-In . SVG Version: 6.00 Build 0)  -->
<svg version="1.1" id="umbrella" xmlns="http://www.w3.org/2000/svg" xmlns:xlink="http://www.w3.org/1999/xlink" x="0px" y="0px"
	 viewBox="0 0 128 128" style="enable-background:new 0 0 128 128;" xml:space="preserve">
<style type="text/css">
	.st0{fill:#28A5C6;}
	.st1{fill:#EAEAEA;}
	.st2{fill:#FFFFFF;}
	.st3{fill:#663210;}
	.st4{fill:#FBD000;}
	.st5{fill:#F4B10B;}
	.st6{fill:none;stroke:#FFFFFF;stroke-width:2;stroke-linecap:round;stroke-linejoin:round;stroke-miterlimit:10;}
	.st7{opacity:0.5;fill:#FFFFFF;}
</style>
<g>
	<circle class="st0" cx="64" cy="64" r="64"/>
	<path class="st1" d="M59,110.7c-3.7,0-8-3.5-8-8c0-1.1,0.9-2,2-2c1.1,0,2,0.9,2,2c0,2.2,2.4,4,4,4c2.3,0,4-1.7,4-4v-85
		c0-1.1,0.9-2,2-2c1.1,0,2,0.9,2,2v85C67,107.2,63.5,110.7,59,110.7z"/>
	<path class="st2" d="M59,110.7c-3.7,0-8-3.5-8-8c0-1.1,0.9-2,2-2s2,0.9,2,2c0,2,2.3,4,4,4c2.3,0,4-1.7,4-4v-85c0-1.1,0.9-2,2-2
		c1.1,0,2,0.9,2,2v85C67,107.2,63.5,110.7,59,110.7z"/>
	<path class="st3" d="M65,16.7c0.6,0,1,0.4,1,1v85c0,3.9-3.1,7-7,7c-3.2,0-7-3.1-7-7c0-0.6,0.4-1,1-1c0.6,0,1,0.4,1,1
		c0,2.6,2.8,5,5,5c2.9,0,5-2.1,5-5v-85C64,17.1,64.4,16.7,65,16.7 M65,14.7c-1.7,0-3,1.3-3,3v85c0,1.7-1.3,3-3,3c-1.1,0-3-1.5-3-3
		c0-1.7-1.3-3-3-3c-1.7,0-3,1.3-3,3c0,5.1,4.8,9,9,9c5,0,9-4,9-9v-85C68,16,66.7,14.7,65,14.7L65,14.7z"/>
	<path class="st4" d="M114.1,60.1C107.9,38.7,88.2,23,64.8,23c-23.4,0-43.1,15.7-49.3,37.1c0,0,5.2-3.1,13.9-3.1S45,60.1,45,60.1
		S51.8,57,64.3,57s20,3.1,20,3.1S92.8,57,99.2,57S114.1,60.1,114.1,60.1z"/>
	<path class="st5" d="M109.3,48.9c-2.7-0.9-8-2.3-12.3-2.3c-5.9,0-13.9,2.9-13.9,2.9s-7-2.9-18.8-2.9c-11.7,0-18.2,2.9-18.2,2.9
		s-6.6-2.9-14.7-2.9c-5.1,0-9,1.2-11.1,2c-2.1,3.6-3.8,7.5-4.9,11.5c0,0,5.2-3.1,13.9-3.1S45,60.1,45,60.1S51.8,57,64.3,57
		s20,3.1,20,3.1S92.8,57,99.2,57s14.9,3.1,14.9,3.1C112.9,56.1,111.3,52.4,109.3,48.9z"/>
	<path class="st3" d="M84.4,64.4c-0.5,0-1-0.4-1-1c-0.6-15-7.5-29.4-19.1-39.5c-0.4-0.4-0.5-1-0.1-1.4c0.4-0.4,1-0.5,1.4-0.1
		c12,10.5,19.2,25.4,19.8,40.9C85.4,64,85,64.4,84.4,64.4C84.4,64.4,84.4,64.4,84.4,64.4z"/>
	<path class="st3" d="M45,64.4C44.9,64.4,44.9,64.4,45,64.4c-0.6,0-1-0.5-1-1c0.6-15.5,7.8-30.5,19.8-40.9c0.4-0.4,1-0.3,1.4,0.1
		c0.4,0.4,0.3,1-0.1,1.4C53.5,34.1,46.5,48.5,46,63.5C45.9,64,45.5,64.4,45,64.4z"/>
	<path class="st3" d="M14.7,63.7c-0.1,0-0.2,0-0.3,0c-0.5-0.1-0.9-0.7-0.7-1.2c0.3-1.1,0.6-2.1,0.9-3.2c0.2-0.5,0.7-0.8,1.3-0.6
		c0.5,0.2,0.8,0.7,0.6,1.3c-0.3,1-0.6,2-0.9,3.1C15.6,63.4,15.2,63.7,14.7,63.7z"/>
	<path class="st3" d="M114.6,63.7c-0.4,0-0.8-0.3-1-0.7c-0.3-1-0.6-2.1-0.9-3.1c-0.2-0.5,0.1-1.1,0.6-1.3c0.5-0.2,1.1,0.1,1.3,0.6
		c0.3,1,0.7,2.1,0.9,3.2c0.1,0.5-0.2,1.1-0.7,1.2C114.8,63.7,114.7,63.7,114.6,63.7z"/>
	<path class="st3" d="M15.5,61.1c-0.2,0-0.4-0.1-0.6-0.2c-0.3-0.3-0.5-0.7-0.4-1.1C20.9,37.5,41.6,22,64.8,22
		C88,22,108.6,37.5,115,59.8c0.1,0.4,0,0.8-0.3,1c-0.3,0.3-0.7,0.3-1,0.2c-0.1,0-8.5-3.1-14.6-3.1c-6.1,0-14.4,3-14.5,3.1
		c-0.2,0.1-0.5,0.1-0.7,0c-0.1,0-7.5-3-19.6-3c-12.1,0-18.9,3-18.9,3c-0.3,0.1-0.6,0.1-0.8,0c-0.1,0-6.9-3-15.3-3
		C21,58,16,60.9,16,60.9C15.8,61,15.7,61.1,15.5,61.1z M64.3,56c11.2,0,18.3,2.4,20,3.1c1.7-0.6,9-3.1,14.8-3.1
		c4.7,0,10.5,1.6,13.4,2.5C105.8,38.1,86.4,24,64.8,24C43.2,24,24,38,17.1,58.2c2.4-1,6.6-2.2,12.2-2.2c7.7,0,14,2.4,15.7,3
		C46.7,58.3,53.3,56,64.3,56z"/>
	<path class="st2" d="M97.7,42.2c-0.3,0-0.5-0.1-0.7-0.3c-2.8-3-6.3-5.7-10.5-8c-0.5-0.3-0.7-0.9-0.4-1.4c0.3-0.5,0.9-0.7,1.4-0.4
		c4.4,2.4,8.1,5.3,11,8.4c0.4,0.4,0.4,1-0.1,1.4C98.2,42.1,97.9,42.2,97.7,42.2z"/>
	<path class="st2" d="M82.3,31.7c-0.1,0-0.3,0-0.4-0.1c-3-1.3-5.1-1.9-5.2-1.9c-0.5-0.2-0.8-0.7-0.7-1.2c0.2-0.5,0.7-0.8,1.2-0.7
		c0.1,0,2.3,0.6,5.4,2c0.5,0.2,0.7,0.8,0.5,1.3C83,31.4,82.7,31.7,82.3,31.7z"/>
	<path class="st2" d="M30.5,43.5c-0.2,0-0.5-0.1-0.7-0.2c-0.4-0.4-0.5-1-0.1-1.4c0.3-0.4,8.5-9.8,17.2-12.3c0.5-0.2,1.1,0.1,1.2,0.7
		c0.2,0.5-0.1,1.1-0.7,1.2c-8.1,2.4-16.2,11.6-16.3,11.7C31.1,43.4,30.8,43.5,30.5,43.5z"/>
	<path class="st2" d="M73.5,43c-0.5,0-0.9-0.3-1-0.8c-1.6-6.8-6.6-10.9-6.7-11c-0.4-0.3-0.5-1-0.1-1.4c0.3-0.4,1-0.5,1.4-0.1
		c0.2,0.2,5.5,4.5,7.3,12c0.1,0.5-0.2,1.1-0.7,1.2C73.7,43,73.6,43,73.5,43z"/>
	<path class="st6" d="M64.8,92.5"/>
	<path class="st2" d="M64.8,102.8c-0.6,0-1-0.4-1-1v-9.2c0-0.6,0.4-1,1-1c0.6,0,1,0.4,1,1v9.2C65.8,102.3,65.3,102.8,64.8,102.8z"/>
	<path class="st7" d="M39,97c-2.4,0-4.3-1.9-4.3-4.3c0-2.4,1.9-4.3,4.3-4.3c2.4,0,4.3,1.9,4.3,4.3C43.3,95.1,41.4,97,39,97z
		 M39,90.5c-1.3,0-2.3,1-2.3,2.3c0,1.3,1,2.3,2.3,2.3c1.3,0,2.3-1,2.3-2.3C41.3,91.5,40.3,90.5,39,90.5z"/>
	<path class="st3" d="M59,112c-4.2,0-9-3.9-9-9c0-1.7,1.3-3,3-3c1.7,0,3,1.3,3,3c0,1.5,1.9,3,3,3c1.7,0,3-1.3,3-3V92
		c0-1.7,1.3-3,3-3c1.7,0,3,1.3,3,3v11C68,108,64,112,59,112z"/>
	<path class="st7" d="M79.3,81.8c-2.4,0-4.3-1.9-4.3-4.3c0-2.4,1.9-4.3,4.3-4.3c2.4,0,4.3,1.9,4.3,4.3
		C83.5,79.9,81.6,81.8,79.3,81.8z M79.3,75.2c-1.3,0-2.3,1-2.3,2.3c0,1.3,1,2.3,2.3,2.3c1.3,0,2.3-1,2.3-2.3
		C81.5,76.2,80.5,75.2,79.3,75.2z"/>
	<path class="st7" d="M25.9,74.2c0-0.4-0.4-0.8-1-0.9l-1.9-0.3c-0.5-0.1-1.1-0.6-1.1-1.1l-0.3-1.9c-0.1-0.5-0.5-1-0.9-1
		c-0.4,0-0.8,0.4-0.9,1l-0.3,1.9c-0.1,0.5-0.6,1.1-1.1,1.1l-1.9,0.3c-0.5,0.1-1,0.5-1,0.9s0.4,0.8,1,0.9l1.9,0.3
		c0.5,0.1,1.1,0.6,1.1,1.1l0.3,1.9c0.1,0.5,0.5,1,0.9,1c0.4,0,0.8-0.4,0.8-1l0.3-2.1c0.1-0.5,0.6-1,1.1-1.1l1.8-0.1
		C25.5,75,25.9,74.6,25.9,74.2z"/>
	<path class="st7" d="M105.8,72c0-0.4-0.4-0.8-1-0.9l-1.9-0.3c-0.5-0.1-1.1-0.6-1.1-1.1l-0.3-1.9c-0.1-0.5-0.5-1-0.9-1
		c-0.4,0-0.8,0.4-0.9,1l-0.3,1.9c-0.1,0.5-0.6,1.1-1.1,1.1l-1.9,0.3c-0.5,0.1-1,0.5-1,0.9s0.4,0.8,1,0.9l1.9,0.3
		c0.5,0.1,1.1,0.6,1.1,1.1l0.3,1.9c0.1,0.5,0.5,1,0.9,1c0.4,0,0.8-0.4,0.8-1l0.3-2.1c0.1-0.5,0.6-1,1.1-1.1l1.8-0.1
		C105.4,72.7,105.8,72.4,105.8,72z"/>
	<path class="st7" d="M90.3,99c0-0.4-0.4-0.8-1-0.9l-1.9-0.3c-0.5-0.1-1.1-0.6-1.1-1.1l-0.3-1.9c-0.1-0.5-0.5-1-0.9-1
		c-0.4,0-0.8,0.4-0.9,1l-0.3,1.9c-0.1,0.5-0.6,1.1-1.1,1.1l-1.9,0.3c-0.5,0.1-1,0.5-1,0.9s0.4,0.8,1,0.9l1.9,0.3
		c0.5,0.1,1.1,0.6,1.1,1.1l0.3,1.9c0.1,0.5,0.5,1,0.9,1c0.4,0,0.8-0.4,0.8-1l0.3-2.1c0.1-0.5,0.6-1,1.1-1.1l1.8-0.1
		C89.9,99.7,90.3,99.4,90.3,99z"/>
</g>
</svg>
