<svg aria-hidden="true" focusable="false" data-name="Layer 1" viewBox="0 0 399.0007 197.3" data-reactid="581"><path d="M398.5 104.5l-.6.6c-2.6 2.1-6.4 1.4-7.7-1.4-1.4-4.1-.7-8.5-.7-12.9h8.8V77.9h-8.8v-8.8h-14v22.3c-2.5-6-6.3-9.5-12.3-12.3-12-4.2-23.4.8-28.6 12.3-2.1-6-5.2-9.8-11-12.5-11.6-4.1-22.7.7-26.7 12.5-3.2-7.4-7.8-11.2-15.7-13.4-10.6-1.8-19.7 2.9-24.4 12.5V60.4h-14.3v30.1a23.418 23.418 0 0 0-6.9-8.7c-14.8-10.7-34.3 0-34.6 18V138h14.4c0-3.9-.4-18.8-.4-18.8l1.6.7c10.8 2.7 21.8-2.7 25.9-11.1v13h14.4v-13c4.1 8.8 12.1 13.9 21.9 13.2 4.5.3 8.4-11.7 8.4-8.4v8.4h9.7l14-.2V95.3c0-5.5 9-6 9.5-.3.1 8.7.1 18.3.1 26.8h14.2v-13.9a22.566 22.566 0 0 0 11.9 12.2c11.4 3.7 23.4 1.9 27.8-12l-12.1-2c-2.8 4.2-12.7 5-15.8-3.2h29c0 6.8.1 12 6.3 16.5s17.3.2 17.2-2.7l-.5-12.2zM223 90.2l-.3-12.5zm.3 18.3a9.1 9.1 0 1 1 9.1-9.1 9.133 9.133 0 0 1-9.1 9.1zm53-18.3l-.1-12.5zm.3 18.3a9.1 9.1 0 1 1 9.1-9.1 9.133 9.133 0 0 1-9.1 9.1zm69.8-12a8.982 8.982 0 0 1 8.4-6.6l-.5-12.2.5 12.2a9.038 9.038 0 0 1 9.1 6.6z" data-reactid="582"></path><path d="M198.8 11.2a86.628 86.628 0 0 1 82 58.3l5-1.7 5-1.7a96.963 96.963 0 0 0-92-66.1c-42.5 0-78.8 27.7-92 65.9l9.9 3.8c12-34.1 44.3-58.5 82.1-58.5zm0 175c-37.9 0-70.1-23.6-82-57.2l-5 1.7-5 1.7a97.709 97.709 0 0 0 184 .2l-9.9-3.7a87.427 87.427 0 0 1-82.1 57.3z" data-reactid="583"></path><path d="M131.2 108.5l-11.9-1.8c-6 4.6-12.9 2.2-15.1-3.9h29v18.9h14.3V112c2.4 9.6 14.3 12.9 21 5.7a21.05 21.05 0 0 1-.9 6.6c-2.2 5.2-9.4 5.2-13.1 1.7l-8.5 11c5.4 4.3 10.9 6.3 17.9 5.7 5.8-.6 9.4-1.6 13.9-5.6a19.603 19.603 0 0 0 5.2-12.7V77.5h-14.2v26.9a3.552 3.552 0 1 1-7.1 0V77.6h-14.2V60.4h-14.4v31c-4.6-9.9-13.4-15-24.4-13.5-7.9 1.8-13.5 6.1-16.5 13.5C89.5 82.7 83 78 74 77.6c-9.5 0-16.6 4.7-19.5 13.8-4.8-10.6-14.4-15.7-25.9-13.1-6.9 2.2-11 5.8-14.2 12.2V60.4H0v61.3h14.4v-13.8c4.1 8.2 10.9 12.7 20.1 12.9 9.8-.6 16-5.2 19.9-13.8v14.7h13.9V95.2c.5-5.8 9.3-5.9 9.8 0v26.5H92v-13.9c3.2 7.1 8.2 11.4 15.8 13.3 16.7 1.6 23.3-9.7 23.4-12.6zm-97.2-.3a9.107 9.107 0 0 1-.5-18.2l.1-12.3-.1 12.3h.5a9.1 9.1 0 1 1 0 18.2zm87.5-10.9h-17.7a9.138 9.138 0 0 1 17.7 0z" data-reactid="584"></path></svg>